# AST/ASF file generated using VICON BodyLanguage
# -----------------------------------------------
:version 1.10
:name VICON
:units
  mass 1.0
  length 0.45
  angle deg
:documentation
   .ast/.asf automatically generated from VICON data using
   VICON BodyBuilder and BodyLanguage model FoxedUp or BRILLIANT.MOD
:root
   order TX TY TZ RX RY RZ
   axis XYZ
   position 0 0 0  
   orientation 0 0 0 
:bonedata
  begin
     id 1 
     name lhipjoint
     direction 0.528046 -0.759594 0.379717 
     length 2.39752 
     axis 0 0 0  XYZ
  end
  begin
     id 2 
     name lfemur
     direction 0.34202 -0.939693 0  
     length 7.31175  
     axis 0 0 20  XYZ
    dof rx ry rz
    limits (-160.0 20.0)
           (-70.0 70.0)
           (-60.0 70.0)
  end
  begin
     id 3 
     name ltibia
     direction 0.34202 -0.939693 0   
     length 7.52482   
     axis 0 0 20   XYZ
    dof rx
    limits (-10.0 170.0)
  end
  begin
     id 4 
     name lfoot
     direction 0.0675379 -0.185559 0.980309   
     length 2.00961   
     axis -90 7.62852e-016 20   XYZ
    dof rx rz
    limits (-45.0 90.0)
           (-70.0 20.0)
  end
  begin
     id 5 
     name ltoes
     direction 1.5352e-011 -4.22286e-011 1   
     length 1.01383   
     axis -90 7.62852e-016 20   XYZ
    dof rx
    limits (-90.0 20.0)
  end
  begin
     id 6 
     name rhipjoint
     direction -0.510274 -0.769251 0.384544   
     length 2.36742  
     axis 0 0 0  XYZ 
  end
  begin
     id 7 
     name rfemur
     direction -0.34202 -0.939693 0   
     length 7.45325   
     axis 0 0 -20   XYZ
    dof rx ry rz
    limits (-160.0 20.0)
           (-70.0 70.0)
           (-70.0 60.0)
  end
  begin
     id 8 
     name rtibia
     direction -0.34202 -0.939693 0   
     length 7.49587   
     axis 0 0 -20   XYZ
    dof rx
    limits (-10.0 170.0)
 end
 begin
     id 9 
     name rfoot
     direction -0.106475 -0.292536 0.950308   
     length 2.20898  
     axis -90 -7.62852e-016 -20   XYZ
    dof rx rz
    limits (-45.0 90.0)
           (-20.0 70.0)
  end
  begin
     id 10 
     name rtoes
     direction -1.53597e-011 -4.22023e-011 1   
     length 1.10065   
     axis -90 -7.62852e-016 -20   XYZ
    dof rx
    limits (-90.0 20.0)
  end
  begin
     id 11 
     name lowerback
     direction 0.0260024 0.998026 -0.0571652   
     length 2.11214   
     axis 0 0 0   XYZ
    dof rx ry rz
    limits (-20.0 45.0)
           (-30.0 30.0)
           (-30.0 30.0)
  end
  begin
     id 12 
     name upperback
     direction 0.0216202 0.999542 -0.0211766   
     length 2.11689   
     axis 0 0 0   XYZ
    dof rx ry rz
    limits (-20.0 45.0)
           (-30.0 30.0)
           (-30.0 30.0)
  end
  begin
     id 13 
     name thorax
     direction 0.00883312 0.999944 0.00589057   
     length 2.11821   
     axis 0 0 0   XYZ
    dof rx ry rz
    limits (-20.0 45.0)
           (-30.0 30.0)
           (-30.0 30.0)
  end
  begin
     id 14 
     name lowerneck
     direction -0.059386 0.994433 0.0870401   
     length 1.81176   
     axis 0 0 0   XYZ
    dof rx ry rz
    limits (-20.0 45.0)
           (-30.0 30.0)
           (-30.0 30.0)
  end
  begin
     id 15 
     name upperneck
     direction 0.0506457 0.97328 -0.223967   
     length 1.82382   
     axis 0 0 0   XYZ
    dof rx ry rz
    limits (-20.0 45.0)
           (-30.0 30.0)
           (-30.0 30.0)
  end
  begin
     id 16
     name head
     direction 0.0205902 0.996147 -0.0852487  
     length 1.84805  
     axis 0 0 0   XYZ
    dof rx ry rz
    limits (-20.0 45.0)
           (-30.0 30.0)
           (-30.0 30.0)
  end
  begin
     id 17 
     name lclavicle
     direction 0.949493 0.303881 -0.0782325  
     length 3.60584  
     axis 0 0 0   XYZ
    dof ry rz
    limits (-20.0 10.0)
           (0.0 20.0)
  end
  begin
     id 18 
     name lhumerus
     direction 1 -4.48965e-011 1.48782e-027   
     length 4.95681   
     axis 180 -30 -90   XYZ
    dof rx ry rz
    limits (-60.0 90.0)
           (-90.0 90.0)
           (-90.0 90.0)
  end
  begin
     id 19
     name lradius
     direction 1 -4.48952e-011 2.06528e-027   
     length 3.40915   
     axis 180 -30 -90   XYZ
    dof rx
    limits (-10.0 170.0)
  end
  begin
     id 20
     name lwrist
     direction 1 -4.48964e-011 1.28021e-027   
     length 1.70457   
     axis -1.61767e-015 90 90   XYZ
    dof ry
    limits (-180.0 0.0)
 end
  begin
     id 21 
     name lhand
     direction 1 -4.49094e-011 2.54887e-027   
     length 0.616403   
     axis -1.63363e-015 90 90   XYZ
    dof rx rz
    limits (-90.0 90.0)
           (-45.0 45.0)
  end
  begin
     id 22 
     name lfingers
     direction 1 -4.49002e-011 5.11407e-027   
     length 0.49696   
     axis -3.26723e-015 90 90   XYZ
    dof rx
    limits (0.0 90.0)
  end
  begin
     id 23
     name lthumb
     direction 0.707107 -6.34998e-011 0.707107   
     length 0.713539   
     axis -90 45 -2.25915e-014   XYZ
    dof rx rz
    limits (-45.0 45.0)
           (-45.0 45.0)
  end
  begin
     id 24 
     name rclavicle
     direction -0.937751 0.334612 -0.0930482   
     length 3.46287  
     axis 0 0 0   XYZ 
    dof ry rz
    limits (-10.0 20.0)
           (-20.0 0.0)
  end
  begin
     id 25 
     name rhumerus
     direction -1 -4.48962e-011 3.59972e-027  
     length 5.352   
     axis 180 30 90   XYZ
    dof rx ry rz
    limits (-90.0 60.0)
           (-90.0 90.0)
           (-90.0 90.0)
  end
  begin
     id 26 
     name rradius
     direction -1 -4.48987e-011 -3.76925e-027   
     length 3.43721   
     axis 180 30 90   XYZ
    dof rx
    limits (-10.0 170.0)
  end
  begin
     id 27 
     name rwrist
     direction -1 -4.48943e-011 1.28112e-027   
     length 1.7186   
     axis -1.61767e-015 -90 -90   XYZ
    dof ry
    limits (-180.0 0.0)
  end
  begin
     id 28
     name rhand
     direction -1 -4.49027e-011 2.55483e-027   
     length 0.72009   
     axis -1.63363e-015 -90 -90   XYZ
    dof rx rz
    limits (-90.0 90.0)
           (-45.0 45.0)
  end
  begin
     id 29
     name rfingers
     direction -1 -4.48827e-011 5.14506e-027   
     length 0.580555   
     axis -3.26723e-015 -90 -90   XYZ
    dof rx
    limits (0.0 90.0)
  end
  begin
     id 30
     name rthumb
     direction -0.707107 -6.34936e-011 0.707107   
     length 0.833564   
     axis -90 -45 2.25915e-014   XYZ
    dof rx rz
    limits (-45.0 45.0)
           (-45.0 45.0)
  end
:hierarchy
  begin
    root lhipjoint rhipjoint lowerback
    lhipjoint lfemur
    lfemur ltibia
    ltibia lfoot
    lfoot ltoes
    rhipjoint rfemur
    rfemur rtibia
    rtibia rfoot
    rfoot rtoes
    lowerback upperback
    upperback thorax
    thorax lowerneck lclavicle rclavicle
    lowerneck upperneck
    upperneck head
    lclavicle lhumerus
    lhumerus lradius
    lradius lwrist
    lwrist lhand lthumb
    lhand lfingers
    rclavicle rhumerus
    rhumerus rradius
    rradius rwrist
    rwrist rhand rthumb
    rhand rfingers
  end

#!OML:ASF H:\Terrain\Patient Classification 1\Terrain2\Thursday\justin.ASF
:FULLY-SPECIFIED
:DEGREES
839
root 19.3378 24.0993 19.8426 181.224 2.1647 188.742
lowerback 7.17688 1.16406 8.3692
upperback 3.14915 2.74414 4.43766
thorax -0.608477 1.65816 -0.294016
lowerneck -14.1481 2.00223 -8.67987
upperneck 37.9319 0.856471 1.68584
head 15.7027 -2.04345 2.02352
rclavicle -2.54444e-014 2.38542e-015
rhumerus -28.7168 -12.1699 -77.6181
rradius 21.7112
rwrist 0.650823
rhand -18.6592 13.8514
rfingers 7.12502
rthumb 7.63409 -15.9909
lclavicle -2.54444e-014 2.38542e-015
lhumerus -36.1771 5.58792 85.7009
lradius 32.8218
lwrist 3.08559
lhand -19.7918 20.1499
lfingers 7.12502
lthumb 6.54077 50.0289
rfemur 5.66666 -2.66698 32.4208
rtibia 13.0769
rfoot -15.5215 0.57849
rtoes 16.8334
lfemur -33.6756 4.85737 -11.4482
ltibia 43.2381
lfoot -10.7256 -3.91552
ltoes -8.44716
840
root 19.3408 24.091 19.7784 181.223 2.19084 188.612
lowerback 7.17101 1.17124 8.2958
upperback 3.17073 2.73913 4.38627
thorax -0.583634 1.65395 -0.305738
lowerneck -14.4807 1.93131 -8.79029
upperneck 38.3638 0.740969 1.65222
head 16.0132 -2.15703 2.00563
rclavicle -7.95139e-016 7.95139e-015
rhumerus -28.7702 -12.0888 -77.7071
rradius 21.8695
rwrist 0.72058
rhand -18.0788 12.2931
rfingers 7.12502
rthumb 8.19427 -17.528
lclavicle -7.95139e-016 7.95139e-015
lhumerus -36.2479 5.7764 85.5029
lradius 32.6329
lwrist 2.96106
lhand -20.2831 20.879
lfingers 7.12502
lthumb 6.06648 50.7722
rfemur 6.1008 -2.54335 32.3116
rtibia 12.6812
rfoot -15.535 0.476753
rtoes 16.8935
lfemur -33.5837 4.59596 -11.5874
ltibia 41.6995
lfoot -10.9308 -3.44157
ltoes -10.0452
841
root 19.339 24.0867 19.7118 181.248 2.19938 188.542
lowerback 7.2111 1.26971 8.4417
upperback 3.15448 2.87043 4.24564
thorax -0.598778 1.71482 -0.541967
lowerneck -14.5306 1.86745 -8.63554
upperneck 38.367 0.602315 1.695
head 16.0367 -2.17824 1.97592
rclavicle -1.76918e-014 2.46493e-014
rhumerus -28.9052 -12.647 -77.6502
rradius 21.653
rwrist 0.806531
rhand -18.0271 13.3255
rfingers 7.12502
rthumb 8.24416 -16.4937
lclavicle -1.76918e-014 2.46493e-014
lhumerus -36.2215 5.55627 85.3553
lradius 32.1363
lwrist 3.09973
lhand -20.1963 21.1519
lfingers 7.12502
lthumb 6.15034 51.0426
rfemur 6.47777 -2.49945 32.238
rtibia 12.3501
rfoot -15.5881 0.408894
rtoes 16.9407
lfemur -33.5309 4.10916 -11.579
ltibia 40.1355
lfoot -11.0345 -3.1417
ltoes -8.02328
842
root 19.3438 24.0825 19.65 181.317 2.08678 188.442
lowerback 7.09858 1.26502 8.41626
upperback 3.19965 2.84117 4.19971
thorax -0.489811 1.70351 -0.567594
lowerneck -14.4632 1.87275 -8.59155
upperneck 38.043 0.701669 1.6588
head 15.8486 -2.09341 1.97508
rclavicle -3.6477e-014 -2.46493e-014
rhumerus -28.9575 -12.548 -77.7204
rradius 21.7701
rwrist 0.591198
rhand -18.2901 14.1117
rfingers 7.12502
rthumb 7.99031 -15.7173
lclavicle -3.6477e-014 -2.46493e-014
lhumerus -36.1002 5.95178 85.0856
lradius 31.5273
lwrist 2.72876
lhand -19.921 20.7628
lfingers 7.12502
lthumb 6.4161 50.6456
rfemur 6.83877 -2.55535 32.1795
rtibia 11.8875
rfoot -15.5929 0.177522
rtoes 16.4918
lfemur -33.6088 3.76402 -11.6614
ltibia 38.6019
lfoot -11.0157 -3.06242
ltoes -7.00723
843
root 19.3565 24.0752 19.5895 181.307 2.03916 188.37
lowerback 6.97254 1.16412 8.19629
upperback 3.28532 2.68066 4.27672
thorax -0.356452 1.63092 -0.349567
lowerneck -14.4768 1.8934 -8.66415
upperneck 38.0411 0.84616 1.38108
head 15.8473 -2.08891 1.88964
rclavicle 2.15681e-014 2.70347e-014
rhumerus -28.9718 -11.522 -78.0706
rradius 22.4503
rwrist 0.0878509
rhand -18.0779 12.2979
rfingers 7.12502
rthumb 8.19517 -17.5232
lclavicle 2.15681e-014 2.70347e-014
lhumerus -36.0761 6.72927 84.774
lradius 30.9977
lwrist 2.42846
lhand -20.4354 19.726
lfingers 7.12502
lthumb 5.9195 49.6233
rfemur 7.3304 -2.46295 32.1846
rtibia 11.3822
rfoot -15.516 -0.127503
rtoes 16.7009
lfemur -33.6156 3.8247 -11.7957
ltibia 37.0888
lfoot -10.9682 -3.0811
ltoes -9.09361
844
root 19.3676 24.0642 19.5293 181.376 2.06454 188.602
lowerback 6.83368 1.09727 8.23653
upperback 3.20808 2.59326 4.41487
thorax -0.370599 1.58801 -0.220234
lowerneck -14.2003 2.00614 -8.59707
upperneck 38.128 0.93253 1.25129
head 15.8199 -2.09052 1.82833
rclavicle -9.44227e-015 -1.19271e-014
rhumerus -29.2123 -10.7069 -78.3176
rradius 22.842
rwrist -0.369745
rhand -17.7206 11.2621
rfingers 7.12502
rthumb 8.53997 -18.5452
lclavicle -9.44227e-015 -1.19271e-014
lhumerus -36.4061 7.0393 84.639
lradius 30.483
lwrist 3.3797
lhand -22.3637 17.4381
lfingers 7.12502
lthumb 4.05756 47.3792
rfemur 7.64 -2.20728 32.5235
rtibia 11.0995
rfoot -15.4804 -0.404105
rtoes 18.028
lfemur -33.6711 3.78939 -11.5149
ltibia 35.5697
lfoot -10.9491 -3.18857
ltoes -11.3374
845
root 19.3743 24.0555 19.4674 181.501 2.01285 188.735
lowerback 6.80614 1.24553 8.56299
upperback 3.29069 2.79618 4.26003
thorax -0.23181 1.69844 -0.568038
lowerneck -14.7341 1.78528 -8.49365
upperneck 38.1292 0.600434 1.59221
head 15.9681 -2.12923 1.91427
rclavicle -2.0276e-014 -7.07673e-014
rhumerus -29.0668 -11.2909 -78.5103
rradius 22.785
rwrist -0.875079
rhand -18.0136 12.0147
rfingers 7.12502
rthumb 8.25724 -17.8039
lclavicle -2.0276e-014 -7.07673e-014
lhumerus -36.013 6.96789 84.2379
lradius 30.1821
lwrist 2.14317
lhand -20.9707 19.1759
lfingers 7.12502
lthumb 5.40267 49.0871
rfemur 7.77584 -2.08806 32.7368
rtibia 11.0249
rfoot -15.6958 -0.623935
rtoes 18.2809
lfemur -33.7682 3.48987 -11.2818
ltibia 34.0613
lfoot -10.8963 -3.64403
ltoes -10.5798
846
root 19.3807 24.0422 19.3984 181.459 1.84377 188.493
lowerback 6.93529 1.20281 8.26727
upperback 3.17898 2.72776 4.22886
thorax -0.437105 1.64537 -0.442613
lowerneck -14.6142 1.81392 -8.60534
upperneck 38.1816 0.584918 1.71525
head 15.9636 -2.148 1.9819
rclavicle 6.55989e-015 1.51076e-014
rhumerus -29.3426 -10.9261 -78.6804
rradius 23.0116
rwrist -1.66491
rhand -18.9896 11.9979
rfingers 7.12502
rthumb 7.31516 -17.8556
lclavicle 6.55989e-015 1.51076e-014
lhumerus -36.1978 7.31473 84.0116
lradius 29.7401
lwrist 1.92765
lhand -20.1971 20.3128
lfingers 7.12502
lthumb 6.14954 50.2035
rfemur 8.12657 -2.05039 32.5521
rtibia 10.9003
rfoot -16.0008 -0.950929
rtoes 17.8017
lfemur -33.6462 3.18591 -11.5107
ltibia 32.6182
lfoot -10.8417 -4.35878
ltoes -8.33824
847
root 19.3901 24.0229 19.3237 181.367 1.66118 188.24
lowerback 6.84019 1.11212 7.89562
upperback 3.17459 2.56353 4.23685
thorax -0.416719 1.55684 -0.216501
lowerneck -14.3615 1.91233 -8.72065
upperneck 38.1175 0.705111 1.757
head 15.8585 -2.11475 2.03717
rclavicle -1.80894e-014 -8.74653e-015
rhumerus -29.5135 -10.5396 -78.7816
rradius 23.2437
rwrist -1.9771
rhand -19.79 12.3027
rfingers 7.12502
rthumb 6.54254 -17.5762
lclavicle -1.80894e-014 -8.74653e-015
lhumerus -36.3269 7.87515 83.7158
lradius 29.1604
lwrist 1.75584
lhand -20.5591 19.9053
lfingers 7.12502
lthumb 5.80005 49.806
rfemur 8.59073 -2.02072 32.3633
rtibia 10.6772
rfoot -16.1607 -1.30036
rtoes 17.5326
lfemur -33.4498 2.93168 -11.7658
ltibia 31.2734
lfoot -10.7332 -4.97755
ltoes -7.1383
848
root 19.402 24.0154 19.2503 181.353 1.69749 188.179
lowerback 6.6709 1.08522 7.7487
upperback 3.30568 2.4945 4.24366
thorax -0.197299 1.53224 -0.114637
lowerneck -14.3544 1.99948 -8.92337
upperneck 37.8419 0.889253 2.03623
head 15.6965 -1.99026 2.22987
rclavicle -2.29596e-014 -3.10104e-014
rhumerus -29.4275 -10.0382 -79.0814
rradius 23.3981
rwrist -3.05646
rhand -20.1689 13.4656
rfingers 7.12502
rthumb 6.17676 -16.4243
lclavicle -2.29596e-014 -3.10104e-014
lhumerus -36.2891 8.59298 83.2226
lradius 28.7579
lwrist 0.937181
lhand -19.4749 19.7856
lfingers 7.12502
lthumb 6.8467 49.6549
rfemur 9.01564 -1.90847 32.3595
rtibia 10.3607
rfoot -16.1654 -1.47896
rtoes 17.2614
lfemur -33.3922 2.67975 -11.7003
ltibia 30.0848
lfoot -10.6264 -5.29142
ltoes -6.12922
849
root 19.4101 24.0076 19.1813 181.446 1.84185 188.402
lowerback 6.69311 1.16157 7.95974
upperback 3.44958 2.62124 4.2705
thorax -0.0447339 1.61361 -0.20695
lowerneck -14.9879 1.90752 -9.08216
upperneck 37.8828 0.862967 2.32889
head 15.8674 -1.95401 2.3936
rclavicle -3.40916e-014 -3.33958e-014
rhumerus -29.1992 -9.3314 -79.6445
rradius 23.6336
rwrist -5.47215
rhand -21.0406 14.1758
rfingers 7.12502
rthumb 5.33516 -15.7371
lclavicle -3.40916e-014 -3.33958e-014
lhumerus -35.9816 9.0079 82.9435
lradius 28.3639
lwrist 0.561425
lhand -17.6247 20.2812
lfingers 7.12502
lthumb 8.63256 50.0847
rfemur 9.48795 -1.73868 32.6227
rtibia 9.75574
rfoot -15.9967 -1.43355
rtoes 17.5234
lfemur -33.5336 2.51737 -11.3068
ltibia 29.1053
lfoot -10.6978 -5.45212
ltoes -6.78985
850
root 19.414 23.9945 19.1122 181.537 1.73234 188.663
lowerback 6.62529 1.09187 8.0487
upperback 3.24556 2.54699 4.43964
thorax -0.228202 1.56805 -0.0799732
lowerneck -14.4686 2.04879 -9.03208
upperneck 37.9607 0.932122 2.2202
head 15.7756 -1.97111 2.33707
rclavicle 4.57205e-014 1.82882e-014
rhumerus -29.5904 -8.63814 -79.825
rradius 23.7455
rwrist -6.64722
rhand -21.8144 14.1577
rfingers 7.12502
rthumb 4.58802 -15.7726
lclavicle 4.57205e-014 1.82882e-014
lhumerus -36.465 9.38046 82.821
lradius 27.8844
lwrist 1.06292
lhand -17.912 19.9687
lfingers 7.12502
lthumb 8.3553 49.7835
rfemur 10.0563 -1.81174 32.9057
rtibia 8.95709
rfoot -15.7594 -1.40473
rtoes 17.7553
lfemur -33.7221 2.37103 -10.9838
ltibia 28.2567
lfoot -10.7199 -5.82129
ltoes -8.14949
851
root 19.42 23.9838 19.0403 181.589 1.52617 188.774
lowerback 6.37252 1.07141 8.12695
upperback 3.31617 2.49625 4.46143
thorax -0.0147736 1.55445 -0.086097
lowerneck -14.5436 1.96888 -8.96583
upperneck 38.1286 0.803599 2.08108
head 15.8932 -2.05301 2.24244
rclavicle -1.26228e-014 3.49861e-014
rhumerus -29.5118 -9.31701 -79.5939
rradius 23.8143
rwrist -5.26135
rhand -21.3539 13.3776
rfingers 7.12502
rthumb 5.03263 -16.5427
lclavicle -1.26228e-014 3.49861e-014
lhumerus -36.2682 9.46865 82.7189
lradius 27.2649
lwrist 1.26279
lhand -18.6542 19.5169
lfingers 7.12502
lthumb 7.63891 49.3589
rfemur 10.5863 -1.99447 33.0626
rtibia 8.2827
rfoot -15.5405 -1.5457
rtoes 17.1017
lfemur -33.8794 2.17109 -10.8559
ltibia 27.4519
lfoot -10.6411 -6.09165
ltoes -7.74547
852
root 19.4292 23.9713 18.9663 181.721 1.51928 188.803
lowerback 6.3128 1.18001 8.09115
upperback 3.27308 2.62333 4.41128
thorax -0.0174655 1.61192 -0.124315
lowerneck -14.7335 1.83877 -8.86645
upperneck 38.3745 0.550251 2.07075
head 16.0867 -2.16635 2.17765
rclavicle 8.15017e-015 -2.54444e-014
rhumerus -29.625 -10.5402 -79.1167
rradius 23.744
rwrist -2.92477
rhand -20.063 13.5526
rfingers 7.12502
rthumb 6.27901 -16.3343
lclavicle 8.15017e-015 -2.54444e-014
lhumerus -36.1972 9.62478 82.3749
lradius 26.8406
lwrist 0.370363
lhand -18.1401 20.0812
lfingers 7.12502
lthumb 8.13516 49.9046
rfemur 11.0304 -1.96949 33.1524
rtibia 7.62981
rfoot -15.287 -1.69607
rtoes 16.2196
lfemur -34.0982 2.4853 -10.9485
ltibia 26.7007
lfoot -10.5924 -6.44373
ltoes -6.07261
